<svg width="36" height="36" viewBox="0 0 36 36" fill="none" xmlns="http://www.w3.org/2000/svg">
<path d="M10.5 18C10.5 18.7956 10.1839 19.5587 9.62132 20.1213C9.05871 20.6839 8.29565 21 7.5 21C6.70435 21 5.94129 20.6839 5.37868 20.1213C4.81607 19.5587 4.5 18.7956 4.5 18C4.5 17.2044 4.81607 16.4413 5.37868 15.8787C5.94129 15.3161 6.70435 15 7.5 15C8.29565 15 9.05871 15.3161 9.62132 15.8787C10.1839 16.4413 10.5 17.2044 10.5 18ZM21 18C21 18.7956 20.6839 19.5587 20.1213 20.1213C19.5587 20.6839 18.7956 21 18 21C17.2044 21 16.4413 20.6839 15.8787 20.1213C15.3161 19.5587 15 18.7956 15 18C15 17.2044 15.3161 16.4413 15.8787 15.8787C16.4413 15.3161 17.2044 15 18 15C18.7956 15 19.5587 15.3161 20.1213 15.8787C20.6839 16.4413 21 17.2044 21 18ZM31.5 18C31.5 18.7956 31.1839 19.5587 30.6213 20.1213C30.0587 20.6839 29.2956 21 28.5 21C27.7044 21 26.9413 20.6839 26.3787 20.1213C25.8161 19.5587 25.5 18.7956 25.5 18C25.5 17.2044 25.8161 16.4413 26.3787 15.8787C26.9413 15.3161 27.7044 15 28.5 15C29.2956 15 30.0587 15.3161 30.6213 15.8787C31.1839 16.4413 31.5 17.2044 31.5 18Z" fill="#F5F5F5"/>
</svg>
