<svg width="2534" height="1259" viewBox="0 0 2534 1259" fill="none" xmlns="http://www.w3.org/2000/svg">
<g clip-path="url(#clip0_5_59)">
<rect width="2534" height="1259" fill="#001A68"/>
<g style="mix-blend-mode:overlay">
<path d="M0 0H2534V1258.75H0V0Z" fill="url(#paint0_linear_5_59)"/>
<path d="M1716.83 483.294C1303.16 173.832 750.899 113.358 281.758 318.749C241.453 239.923 187.925 168.074 123.804 107.335C101.77 86.4364 78.1121 66.4996 53.4994 48.0854C36.9292 35.6867 19.268 23.6849 0 11.7352V1258.63H2242.1C2161.57 959.023 1983.9 683.085 1716.83 483.294Z" fill="url(#paint1_linear_5_59)"/>
<mask id="mask0_5_59" style="mask-type:luminance" maskUnits="userSpaceOnUse" x="0" y="11" width="2243" height="1248">
<g style="mix-blend-mode:overlay">
<path d="M1716.83 483.294C1303.16 173.832 750.899 113.358 281.758 318.749C241.453 239.923 187.925 168.074 123.804 107.335C101.77 86.4364 78.1121 66.4996 53.4994 48.0854C36.9292 35.6867 19.268 23.6849 0 11.7352V1258.63H2242.1C2161.57 959.023 1983.9 683.085 1716.83 483.294Z" fill="white"/>
</g>
</mask>
<g mask="url(#mask0_5_59)">
<path d="M1716.83 483.294C1303.16 173.832 750.899 113.358 281.758 318.749C241.453 239.923 187.925 168.074 123.804 107.335C101.77 86.4364 78.1121 66.4996 53.4994 48.0854C36.9292 35.6867 19.268 23.6849 0 11.7352V1258.63H2242.1C2161.57 959.023 1983.9 683.085 1716.83 483.294Z" fill="url(#paint2_radial_5_59)"/>
</g>
<path d="M0 1258.63H1840.8C1827.15 790.397 1627.54 330.782 1259.71 0H0V1258.63Z" fill="url(#paint3_linear_5_59)"/>
<mask id="mask1_5_59" style="mask-type:luminance" maskUnits="userSpaceOnUse" x="0" y="0" width="1841" height="1259">
<g style="mix-blend-mode:overlay">
<path d="M0 1258.63H1840.8C1827.15 790.397 1627.54 330.782 1259.71 0H0V1258.63Z" fill="white"/>
</g>
</mask>
<g mask="url(#mask1_5_59)">
<path d="M0 1258.63H1840.8C1827.15 790.397 1627.54 330.782 1259.71 0H0V1258.63Z" fill="url(#paint4_radial_5_59)"/>
</g>
<path d="M0 1258.63H1414.03C1369.85 779.664 1130.8 319.851 716.118 9.63157C711.799 6.39854 707.464 3.18798 703.112 0L0 0V1258.63Z" fill="url(#paint5_linear_5_59)"/>
<mask id="mask2_5_59" style="mask-type:luminance" maskUnits="userSpaceOnUse" x="0" y="0" width="1415" height="1259">
<g style="mix-blend-mode:overlay">
<path d="M0 1258.63H1414.03C1369.85 779.664 1130.8 319.851 716.118 9.63157C711.799 6.39854 707.464 3.18798 703.112 0L0 0V1258.63Z" fill="white"/>
</g>
</mask>
<g mask="url(#mask2_5_59)">
<path d="M0 1258.63H1414.03C1369.85 779.664 1130.8 319.851 716.118 9.63157C711.799 6.39854 707.464 3.18798 703.112 0L0 0V1258.63Z" fill="url(#paint6_radial_5_59)"/>
</g>
<path d="M563.906 332.182C394.168 205.203 201.09 120.156 0 78.187V1258.63H1121.25C1065.24 901.741 875.36 565.185 563.906 332.182Z" fill="url(#paint7_linear_5_59)"/>
<mask id="mask3_5_59" style="mask-type:luminance" maskUnits="userSpaceOnUse" x="0" y="78" width="1122" height="1181">
<g style="mix-blend-mode:overlay">
<path d="M563.906 332.182C394.168 205.203 201.09 120.156 0 78.187V1258.63H1121.25C1065.24 901.741 875.36 565.185 563.906 332.182Z" fill="white"/>
</g>
</mask>
<g mask="url(#mask3_5_59)">
<path d="M563.906 332.182C394.168 205.203 201.09 120.156 0 78.187V1258.63H1121.25C1065.24 901.741 875.36 565.185 563.906 332.182Z" fill="url(#paint8_radial_5_59)"/>
</g>
<path d="M798.151 1163.79C593.68 907.096 309.664 733.462 0 661.443V1258.63H867.596C845.741 1226.09 822.574 1194.45 798.151 1163.79V1163.79Z" fill="url(#paint9_linear_5_59)"/>
<path d="M798.151 1163.79C593.68 907.096 309.664 733.462 0 661.443V1258.63H867.596C845.741 1226.09 822.574 1194.45 798.151 1163.79V1163.79Z" fill="url(#paint10_radial_5_59)"/>
</g>
<mask id="mask4_5_59" style="mask-type:luminance" maskUnits="userSpaceOnUse" x="0" y="0" width="1841" height="1259">
<path d="M0 1258.63H1840.8C1827.15 790.397 1627.54 330.782 1259.71 0H0V1258.63Z" fill="white"/>
</mask>
<g mask="url(#mask4_5_59)">
<path d="M0 1258.63H1840.8C1827.15 790.397 1627.54 330.782 1259.71 0H0V1258.63Z" fill="url(#paint11_radial_5_59)"/>
</g>
<mask id="mask5_5_59" style="mask-type:luminance" maskUnits="userSpaceOnUse" x="0" y="0" width="1415" height="1259">
<path d="M0 1258.63H1414.03C1369.85 779.664 1130.8 319.851 716.118 9.63157C711.799 6.39854 707.464 3.18798 703.112 0L0 0V1258.63Z" fill="white"/>
</mask>
<g mask="url(#mask5_5_59)">
<path d="M0 1258.63H1414.03C1369.85 779.664 1130.8 319.851 716.118 9.63157C711.799 6.39854 707.464 3.18798 703.112 0L0 0V1258.63Z" fill="url(#paint12_radial_5_59)"/>
</g>
<mask id="mask6_5_59" style="mask-type:luminance" maskUnits="userSpaceOnUse" x="0" y="78" width="1122" height="1181">
<path d="M563.906 332.182C394.168 205.203 201.09 120.156 0 78.187V1258.63H1121.25C1065.24 901.741 875.36 565.185 563.906 332.182Z" fill="white"/>
</mask>
<g mask="url(#mask6_5_59)">
<path d="M563.906 332.182C394.168 205.203 201.09 120.156 0 78.187V1258.63H1121.25C1065.24 901.741 875.36 565.185 563.906 332.182Z" fill="url(#paint13_radial_5_59)"/>
</g>
<path d="M798.151 1163.79C593.68 907.096 309.664 733.462 0 661.443V1258.63H867.596C845.741 1226.09 822.574 1194.45 798.151 1163.79V1163.79Z" fill="url(#paint14_radial_5_59)"/>
</g>
<defs>
<linearGradient id="paint0_linear_5_59" x1="0" y1="62937.6" x2="253400" y2="62937.6" gradientUnits="userSpaceOnUse">
<stop stop-color="white"/>
<stop offset="0.51" stop-color="#D0D0D0"/>
<stop offset="0.62" stop-color="#C4C4C4"/>
<stop offset="0.68" stop-color="#BCBCBC"/>
<stop offset="0.76" stop-color="#AEAEAE"/>
<stop offset="0.87" stop-color="#929292"/>
<stop offset="0.94" stop-color="#7B7B7B"/>
<stop offset="1" stop-color="#707070"/>
</linearGradient>
<linearGradient id="paint1_linear_5_59" x1="173667" y1="60399.9" x2="186578" y2="89459.8" gradientUnits="userSpaceOnUse">
<stop stop-color="#5D5D5D"/>
<stop offset="1" stop-color="#333333"/>
</linearGradient>
<radialGradient id="paint2_radial_5_59" cx="0" cy="0" r="1" gradientUnits="userSpaceOnUse" gradientTransform="translate(92149.7 75222.2) rotate(-47.2261) scale(155976 97929.2)">
<stop stop-color="white" stop-opacity="0"/>
<stop offset="0.71" stop-opacity="0"/>
<stop offset="0.84431" stop-color="white" stop-opacity="0.082"/>
<stop offset="1" stop-color="white" stop-opacity="0.253"/>
</radialGradient>
<linearGradient id="paint3_linear_5_59" x1="92039.8" y1="33509.7" x2="137395" y2="109842" gradientUnits="userSpaceOnUse">
<stop stop-color="#A1A0A0"/>
<stop offset="0.52805" stop-color="#6E6E6E"/>
<stop offset="1" stop-color="#4B4B4B"/>
</linearGradient>
<radialGradient id="paint4_radial_5_59" cx="0" cy="0" r="1" gradientUnits="userSpaceOnUse" gradientTransform="translate(50281.6 105554) rotate(-26.7945) scale(156763 139791)">
<stop stop-color="white" stop-opacity="0"/>
<stop offset="0.77677" stop-color="white" stop-opacity="0"/>
<stop offset="0.87851" stop-color="white" stop-opacity="0.08"/>
<stop offset="1" stop-color="white" stop-opacity="0.25"/>
</radialGradient>
<linearGradient id="paint5_linear_5_59" x1="0.00090698" y1="13069.6" x2="98534.1" y2="123865" gradientUnits="userSpaceOnUse">
<stop stop-color="#E8E7E7"/>
<stop offset="1" stop-color="#828282"/>
</linearGradient>
<radialGradient id="paint6_radial_5_59" cx="0" cy="0" r="1" gradientUnits="userSpaceOnUse" gradientTransform="translate(47443.8 132514) rotate(-37.1133) scale(178545 165044)">
<stop stop-color="white" stop-opacity="0"/>
<stop offset="0.773" stop-color="#FCFCFC" stop-opacity="0"/>
<stop offset="0.84044" stop-color="white" stop-opacity="0"/>
<stop offset="1" stop-color="white" stop-opacity="0.225"/>
</radialGradient>
<linearGradient id="paint7_linear_5_59" x1="5484.03" y1="78.1865" x2="60534.9" y2="115998" gradientUnits="userSpaceOnUse">
<stop stop-color="#E6E6E6"/>
<stop offset="1" stop-color="#D1D1D1"/>
</linearGradient>
<radialGradient id="paint8_radial_5_59" cx="0" cy="0" r="1" gradientUnits="userSpaceOnUse" gradientTransform="translate(79227.8 102688) rotate(-43.8527) scale(131335 138171)">
<stop stop-color="white" stop-opacity="0"/>
<stop offset="0.59557" stop-opacity="0"/>
<stop offset="0.84213" stop-color="white" stop-opacity="0.102"/>
<stop offset="1" stop-color="white" stop-opacity="0.301"/>
</radialGradient>
<linearGradient id="paint9_linear_5_59" x1="-0.000448529" y1="16372.9" x2="28436.9" y2="55522.8" gradientUnits="userSpaceOnUse">
<stop stop-color="white"/>
<stop offset="1" stop-color="#EEEEEE"/>
</linearGradient>
<radialGradient id="paint10_radial_5_59" cx="0" cy="0" r="1" gradientUnits="userSpaceOnUse" gradientTransform="translate(61310.6 80787.7) rotate(-65.3542) scale(159136 89960.6)">
<stop stop-color="white" stop-opacity="0"/>
<stop offset="0.84867" stop-color="white" stop-opacity="0"/>
<stop offset="1" stop-color="white"/>
</radialGradient>
<radialGradient id="paint11_radial_5_59" cx="0" cy="0" r="1" gradientUnits="userSpaceOnUse" gradientTransform="translate(50524.9 109271) rotate(-41.5162) scale(204496 156649)">
<stop stop-color="white" stop-opacity="0"/>
<stop offset="0.85566" stop-color="white" stop-opacity="0"/>
<stop offset="1" stop-color="white" stop-opacity="0.02"/>
</radialGradient>
<radialGradient id="paint12_radial_5_59" cx="0" cy="0" r="1" gradientUnits="userSpaceOnUse" gradientTransform="translate(47443.8 132514) rotate(-37.1133) scale(178545 165044)">
<stop stop-color="white" stop-opacity="0"/>
<stop offset="0.86914" stop-color="#FCFCFC" stop-opacity="0"/>
<stop offset="0.95211" stop-color="white" stop-opacity="0"/>
<stop offset="1" stop-color="white" stop-opacity="0.03"/>
</radialGradient>
<radialGradient id="paint13_radial_5_59" cx="0" cy="0" r="1" gradientUnits="userSpaceOnUse" gradientTransform="translate(77733.8 109309) rotate(-43.0505) scale(136043 142917)">
<stop stop-color="white" stop-opacity="0"/>
<stop offset="0.8237" stop-opacity="0"/>
<stop offset="0.95988" stop-color="white" stop-opacity="0.02"/>
<stop offset="1" stop-color="white" stop-opacity="0.03"/>
</radialGradient>
<radialGradient id="paint14_radial_5_59" cx="0" cy="0" r="1" gradientUnits="userSpaceOnUse" gradientTransform="translate(65318.6 98260.3) rotate(-65.0909) scale(182147 103305)">
<stop stop-color="white" stop-opacity="0"/>
<stop offset="0.69098" stop-opacity="0"/>
<stop offset="0.85003" stop-color="white" stop-opacity="0.02"/>
<stop offset="1" stop-color="white" stop-opacity="0.1"/>
</radialGradient>
<clipPath id="clip0_5_59">
<rect width="2534" height="1259" fill="white"/>
</clipPath>
</defs>
</svg>
