<svg width="200" height="200" viewBox="0 0 200 200" fill="none" xmlns="http://www.w3.org/2000/svg">
<path fill-rule="evenodd" clip-rule="evenodd" d="M100.989 166.834C103.287 166.843 105.487 166.237 107.588 165.017L154.014 138.064C154.512 137.776 154.983 137.465 155.427 137.133C155.452 137.115 155.484 137.113 155.51 137.128C155.546 137.149 155.592 137.137 155.613 137.1L155.703 136.944C155.719 136.916 155.74 136.892 155.765 136.871C157.041 135.852 158.079 134.636 158.879 133.226C159.669 131.833 160.186 130.337 160.429 128.739C160.433 128.715 160.441 128.692 160.453 128.671L160.521 128.551C160.537 128.525 160.528 128.49 160.502 128.475C160.482 128.464 160.472 128.442 160.475 128.419C160.552 127.814 160.591 127.194 160.592 126.56L160.641 72.7392C160.644 70.304 160.067 68.0778 158.909 66.0606C157.75 64.0434 156.121 62.4272 154.023 61.2122L107.646 34.3444C105.549 33.1332 103.351 32.5214 101.052 32.5092C98.7517 32.4969 96.551 33.1008 94.4494 34.3209L48.0232 61.2741C45.9238 62.498 44.3034 64.1125 43.1619 66.1174C42.0205 68.1224 41.4482 70.3424 41.4453 72.7776L41.3964 126.598C41.3956 127.214 41.432 127.817 41.5056 128.406C41.5065 128.414 41.5029 128.421 41.4965 128.425C41.4875 128.43 41.4845 128.441 41.4896 128.45L41.5113 128.488C41.5154 128.495 41.518 128.503 41.5191 128.511C41.7447 130.212 42.2814 131.8 43.1293 133.277C43.9784 134.756 45.0802 136.019 46.4346 137.067C46.4372 137.069 46.4394 137.071 46.441 137.074L46.4497 137.089C46.4517 137.093 46.4563 137.094 46.4598 137.092C46.4623 137.09 46.4656 137.091 46.468 137.092C46.9515 137.464 47.4671 137.808 48.0147 138.125L94.3918 164.993C96.4927 166.212 98.6919 166.826 100.989 166.834ZM99.4783 152.626C100.401 153.16 101.538 153.16 102.461 152.624L137.855 132.076C139.845 130.921 139.845 128.034 137.856 126.879L102.446 106.321C101.522 105.785 100.385 105.785 99.4611 106.321L64.0297 126.892C62.039 128.047 62.0398 130.936 64.0311 132.09L99.4783 152.626ZM145.818 71.9338C146.736 72.4694 147.303 73.4558 147.305 74.5238L147.377 115.651C147.381 117.964 144.892 119.412 142.9 118.256L107.471 97.6875C106.547 97.1516 105.979 96.1614 105.979 95.0896V53.9202C105.979 51.6076 108.472 50.1637 110.461 51.3235L145.818 71.9338ZM96.0309 53.9685C96.0309 51.6588 93.5442 50.2157 91.5546 51.3708L56.1325 71.9354C55.2098 72.4711 54.641 73.4607 54.64 74.5319L54.6025 115.617C54.6005 117.928 57.0882 119.373 59.079 118.217L94.5384 97.6309C95.4619 97.0947 96.0309 96.1039 96.0309 95.0318V53.9685Z" fill="#F5F5F5"/>
<g filter="url(#filter0_d_71_1017)">
<path d="M100.444 126.621C115.065 126.621 126.917 114.703 126.917 100.001C126.917 85.299 115.065 73.3806 100.444 73.3806C85.8231 73.3806 73.9706 85.299 73.9706 100.001C73.9706 114.703 85.8231 126.621 100.444 126.621Z" fill="url(#paint0_linear_71_1017)"/>
</g>
<defs>
<filter id="filter0_d_71_1017" x="43.9706" y="43.3806" width="112.946" height="113.241" filterUnits="userSpaceOnUse" color-interpolation-filters="sRGB">
<feFlood flood-opacity="0" result="BackgroundImageFix"/>
<feColorMatrix in="SourceAlpha" type="matrix" values="0 0 0 0 0 0 0 0 0 0 0 0 0 0 0 0 0 0 127 0" result="hardAlpha"/>
<feOffset/>
<feGaussianBlur stdDeviation="15"/>
<feComposite in2="hardAlpha" operator="out"/>
<feColorMatrix type="matrix" values="0 0 0 0 0.129412 0 0 0 0 0.156863 0 0 0 0 0.196078 0 0 0 1 0"/>
<feBlend mode="normal" in2="BackgroundImageFix" result="effect1_dropShadow_71_1017"/>
<feBlend mode="normal" in="SourceGraphic" in2="effect1_dropShadow_71_1017" result="shape"/>
</filter>
<linearGradient id="paint0_linear_71_1017" x1="84.9316" y1="78.6769" x2="127.261" y2="149.03" gradientUnits="userSpaceOnUse">
<stop stop-color="white"/>
<stop offset="1" stop-color="#212832"/>
</linearGradient>
</defs>
</svg>
