<svg width="201" height="200" viewBox="0 0 201 200" fill="none" xmlns="http://www.w3.org/2000/svg">
<path fill-rule="evenodd" clip-rule="evenodd" d="M101.494 166.834C103.803 166.843 106.014 166.237 108.126 165.017L154.784 138.064C155.285 137.776 155.758 137.465 156.204 137.133C156.229 137.115 156.261 137.113 156.288 137.128V137.128C156.324 137.149 156.37 137.137 156.391 137.1L156.481 136.944C156.498 136.916 156.519 136.892 156.544 136.871C157.826 135.852 158.869 134.636 159.673 133.226C160.467 131.833 160.987 130.337 161.231 128.739C161.235 128.715 161.243 128.692 161.255 128.671L161.324 128.551C161.34 128.525 161.331 128.49 161.304 128.475V128.475C161.284 128.464 161.274 128.442 161.277 128.419C161.355 127.814 161.394 127.194 161.395 126.56L161.444 72.7391C161.447 70.3039 160.867 68.0777 159.703 66.0605C158.539 64.0433 156.902 62.4271 154.793 61.2121L108.184 34.3443C106.077 33.1331 103.868 32.5213 101.557 32.5091C99.2454 32.4968 97.0337 33.1007 94.9216 34.3208L48.2633 61.274C46.1534 62.4979 44.5249 64.1124 43.3777 66.1173C42.2305 68.1223 41.6554 70.3423 41.6525 72.7775L41.6033 126.598C41.6025 127.214 41.6391 127.817 41.7131 128.406C41.714 128.414 41.7104 128.421 41.7039 128.425V128.425C41.6949 128.43 41.6919 128.441 41.697 128.45L41.7188 128.488C41.7229 128.495 41.7255 128.503 41.7266 128.511C41.9534 130.212 42.4928 131.8 43.3449 133.277C44.1982 134.756 45.3055 136.019 46.6667 137.067C46.6693 137.069 46.6715 137.071 46.6731 137.074L46.6819 137.089C46.6839 137.093 46.6885 137.094 46.692 137.092V137.092C46.6946 137.09 46.6979 137.091 46.7003 137.092C47.1862 137.464 47.7044 137.808 48.2547 138.125L94.8637 164.993C96.9751 166.212 99.1853 166.826 101.494 166.834ZM99.9756 152.626C100.903 153.16 102.046 153.16 102.973 152.624L138.544 132.076C140.544 130.921 140.544 128.034 138.545 126.879L102.958 106.321C102.03 105.785 100.887 105.785 99.9584 106.321L64.3498 126.892C62.3491 128.047 62.3499 130.936 64.3512 132.09L99.9756 152.626ZM146.547 71.9337C147.47 72.4693 148.039 73.4557 148.041 74.5237L148.114 115.651C148.118 117.964 145.616 119.412 143.614 118.256L108.008 97.6874C107.08 97.1515 106.509 96.1613 106.509 95.0895L106.509 53.9201C106.509 51.6075 109.014 50.1636 111.013 51.3234L146.547 71.9337ZM96.511 53.9684C96.511 51.6587 94.0119 50.2156 92.0123 51.3707L56.4131 71.9353C55.4858 72.471 54.9141 73.4606 54.9131 74.5318L54.8755 115.617C54.8734 117.928 57.3736 119.373 59.3743 118.217L95.011 97.6308C95.9392 97.0946 96.511 96.1038 96.511 95.0317L96.511 53.9684Z" fill="#F5F5F5"/>
<g filter="url(#filter0_d_47_5)">
<ellipse cx="100.946" cy="100.001" rx="26.6056" ry="26.6204" fill="url(#paint0_linear_47_5)"/>
</g>
<defs>
<filter id="filter0_d_47_5" x="39.3403" y="38.3811" width="123.211" height="123.241" filterUnits="userSpaceOnUse" color-interpolation-filters="sRGB">
<feFlood flood-opacity="0" result="BackgroundImageFix"/>
<feColorMatrix in="SourceAlpha" type="matrix" values="0 0 0 0 0 0 0 0 0 0 0 0 0 0 0 0 0 0 127 0" result="hardAlpha"/>
<feMorphology radius="5" operator="dilate" in="SourceAlpha" result="effect1_dropShadow_47_5"/>
<feOffset/>
<feGaussianBlur stdDeviation="15"/>
<feComposite in2="hardAlpha" operator="out"/>
<feColorMatrix type="matrix" values="0 0 0 0 0.129412 0 0 0 0 0.156863 0 0 0 0 0.196078 0 0 0 1 0"/>
<feBlend mode="normal" in2="BackgroundImageFix" result="effect1_dropShadow_47_5"/>
<feBlend mode="normal" in="SourceGraphic" in2="effect1_dropShadow_47_5" result="shape"/>
</filter>
<linearGradient id="paint0_linear_47_5" x1="85.3562" y1="78.6769" x2="127.586" y2="149.216" gradientUnits="userSpaceOnUse">
<stop stop-color="white"/>
<stop offset="1" stop-color="#212832"/>
</linearGradient>
</defs>
</svg>
