<svg width="200" height="200" viewBox="0 0 200 200" fill="none" xmlns="http://www.w3.org/2000/svg">
<path fill-rule="evenodd" clip-rule="evenodd" d="M99.8907 167.325C102.2 167.334 104.411 166.728 106.523 165.508L153.181 138.555C153.682 138.267 154.155 137.956 154.601 137.624C154.626 137.606 154.658 137.604 154.685 137.619C154.721 137.64 154.767 137.628 154.788 137.591L154.878 137.435C154.895 137.407 154.916 137.383 154.941 137.362C156.223 136.343 157.266 135.127 158.07 133.717C158.864 132.324 159.384 130.828 159.628 129.23C159.632 129.206 159.64 129.183 159.652 129.162L159.721 129.042C159.737 129.016 159.728 128.981 159.701 128.966C159.681 128.955 159.671 128.933 159.674 128.91C159.752 128.305 159.791 127.685 159.792 127.051L159.841 73.2302C159.844 70.795 159.264 68.5688 158.1 66.5516C156.936 64.5344 155.299 62.9182 153.19 61.7032L106.581 34.8354C104.474 33.6242 102.265 33.0124 99.9537 33.0002C97.6421 32.9879 95.4304 33.5918 93.3183 34.8119L46.66 61.7651C44.5501 62.989 42.9216 64.6035 41.7744 66.6084C40.6272 68.6134 40.0521 70.8334 40.0492 73.2686L40 127.089C39.9992 127.705 40.0358 128.308 40.1098 128.897C40.1107 128.905 40.1071 128.912 40.1006 128.916C40.0916 128.921 40.0886 128.932 40.0937 128.941L40.1155 128.979C40.1196 128.986 40.1222 128.994 40.1233 129.002C40.3501 130.703 40.8895 132.291 41.7416 133.768C42.5949 135.247 43.7022 136.51 45.0634 137.558C45.066 137.56 45.0682 137.562 45.0698 137.565L45.0786 137.58C45.0806 137.584 45.0852 137.585 45.0887 137.583C45.0913 137.581 45.0946 137.582 45.097 137.583C45.5829 137.955 46.1011 138.299 46.6514 138.616L93.2604 165.484C95.3718 166.703 97.582 167.317 99.8907 167.325ZM98.3723 153.117C99.2997 153.651 100.443 153.651 101.37 153.115L136.941 132.567C138.941 131.412 138.941 128.525 136.942 127.37L101.355 106.812C100.427 106.276 99.2837 106.276 98.3551 106.812L62.7465 127.383C60.7458 128.538 60.7466 131.427 62.7479 132.581L98.3723 153.117ZM144.944 72.4248C145.867 72.9604 146.436 73.9468 146.438 75.0148L146.511 116.142C146.515 118.455 144.013 119.903 142.011 118.747L106.405 98.1785C105.477 97.6426 104.906 96.6524 104.906 95.5806V54.4112C104.906 52.0986 107.411 50.6547 109.41 51.8145L144.944 72.4248ZM94.9077 54.4595C94.9077 52.1498 92.4086 50.7067 90.409 51.8618L54.8098 72.4264C53.8825 72.9621 53.3108 73.9517 53.3098 75.0229L53.2722 116.108C53.2701 118.419 55.7703 119.864 57.771 118.708L93.4077 98.1219C94.3359 97.5857 94.9077 96.5949 94.9077 95.5228V54.4595Z" fill="#F5F5F5"/>
<g filter="url(#filter0_d_176_6)">
<path d="M99.3427 127.113C114.037 127.113 125.948 115.194 125.948 100.492C125.948 85.7901 114.037 73.8717 99.3427 73.8717C84.6488 73.8717 72.7371 85.7901 72.7371 100.492C72.7371 115.194 84.6488 127.113 99.3427 127.113Z" fill="url(#paint0_linear_176_6)"/>
</g>
<defs>
<filter id="filter0_d_176_6" x="42.7371" y="43.8717" width="113.211" height="113.241" filterUnits="userSpaceOnUse" color-interpolation-filters="sRGB">
<feFlood flood-opacity="0" result="BackgroundImageFix"/>
<feColorMatrix in="SourceAlpha" type="matrix" values="0 0 0 0 0 0 0 0 0 0 0 0 0 0 0 0 0 0 127 0" result="hardAlpha"/>
<feOffset/>
<feGaussianBlur stdDeviation="15"/>
<feComposite in2="hardAlpha" operator="out"/>
<feColorMatrix type="matrix" values="0 0 0 0 0.129412 0 0 0 0 0.156863 0 0 0 0 0.196078 0 0 0 1 0"/>
<feBlend mode="normal" in2="BackgroundImageFix" result="effect1_dropShadow_176_6"/>
<feBlend mode="normal" in="SourceGraphic" in2="effect1_dropShadow_176_6" result="shape"/>
</filter>
<linearGradient id="paint0_linear_176_6" x1="68.5" y1="81" x2="146" y2="127" gradientUnits="userSpaceOnUse">
<stop stop-color="#F5F5F5"/>
<stop offset="1" stop-color="#0F131A"/>
</linearGradient>
</defs>
</svg>
