<svg width="249" height="250" viewBox="0 0 249 250" fill="none" xmlns="http://www.w3.org/2000/svg">
<path d="M26.0044 96.738C17.8365 97.3267 1.20083 103.604 0.000829114 124.004C-0.0749643 132.4 5.01971 149.72 26.0047 151.828H82.0067C91 151.828 97.0009 158 97.0009 167.004V222.004C97.0009 236.013 108.501 249.004 124.501 249.004C131.501 249.337 146.701 245.404 151.501 227.004C152.168 221.837 153.901 210.604 155.501 207.004C158.834 190.837 176.401 157.204 220.001 152.004C229 151.5 247.401 146.904 249.001 124.504C249.078 115.493 243.387 97.3193 220.005 96.711H166.981C158 96.711 152.036 91 152.036 82.0073V28.0059C152.024 19.172 146.501 1.20401 124.501 0.00401216C116.334 -0.162655 99.4009 4.80401 97.0009 26.004C96.5009 33.6696 92.6009 52.8014 81.0009 68.004C75.0032 76.9933 55.6072 95.3252 26.0044 96.738Z" fill="url(#paint0_linear_3_44)"/>
<defs>
<linearGradient id="paint0_linear_3_44" x1="3.7444e-07" y1="125" x2="264" y2="165.5" gradientUnits="userSpaceOnUse">
<stop stop-color="#9050DA"/>
<stop offset="1" stop-color="#007AFF"/>
</linearGradient>
</defs>
</svg>
