<svg width="30" height="30" viewBox="0 0 30 30" fill="none" xmlns="http://www.w3.org/2000/svg">
<path d="M11.9807 27.7933C12.845 27.7933 13.5188 27.4564 13.9875 26.7533L27.6985 5.54235C28.05 5.01501 28.182 4.54626 28.182 4.09215C28.182 2.93493 27.3323 2.09998 26.1457 2.09998C25.3254 2.09998 24.8274 2.39295 24.3293 3.18396L11.9221 22.8422L5.56469 14.7855C5.0813 14.1849 4.58324 13.9213 3.86546 13.9213C2.66429 13.9213 1.80005 14.7709 1.80005 15.9428C1.80005 16.4555 1.97582 16.9388 2.40062 17.4515L9.98852 26.7972C10.5452 27.4857 11.1604 27.7933 11.9807 27.7933Z" fill="#F5F5F5"/>
</svg>
