<svg width="35" height="35" viewBox="0 0 35 35" fill="none" xmlns="http://www.w3.org/2000/svg">
<path fill-rule="evenodd" clip-rule="evenodd" d="M23.4211 15.9542C23.8307 16.3644 24.0608 16.9203 24.0608 17.5C24.0608 18.0797 23.8307 18.6357 23.4211 19.0459L15.1727 27.2971C14.7624 27.7073 14.2059 27.9376 13.6256 27.9375C13.0454 27.9374 12.489 27.7068 12.0789 27.2964C11.6687 26.886 11.4383 26.3295 11.4385 25.7493C11.4386 25.1691 11.6692 24.6127 12.0796 24.2025L18.7821 17.5L12.0796 10.7975C11.6809 10.3852 11.4602 9.83269 11.4649 9.25913C11.4696 8.68557 11.6994 8.13681 12.1048 7.73103C12.5102 7.32526 13.0587 7.09494 13.6323 7.08969C14.2058 7.08444 14.7585 7.30467 15.1713 7.70295L23.4225 15.9527L23.4211 15.9542Z" fill="#F5F5F5"/>
</svg>
