<svg width="188" height="120" viewBox="0 0 188 120" fill="none" xmlns="http://www.w3.org/2000/svg">
<g clip-path="url(#clip0_46_476)">
<path d="M116.941 54.7294L65.2697 3.06003C62.296 0.0844019 57.4697 0.0844019 54.4913 3.06003L43.7625 13.7907L57.3731 27.4013C60.5372 26.3335 64.1634 27.0497 66.6844 29.5707C69.2184 32.1075 69.9291 35.7647 68.835 38.9391L81.9525 52.0575C85.1259 50.9635 88.7888 51.6703 91.3219 54.2091C94.8656 57.75 94.8656 63.4903 91.3219 67.0332C90.4797 67.8757 89.4799 68.5441 88.3793 69.0001C87.2788 69.4561 86.0992 69.6908 84.908 69.6908C83.7167 69.6908 82.5371 69.4561 81.4366 69.0001C80.3361 68.5441 79.3362 67.8757 78.4941 67.0332C77.2291 65.7669 76.3669 64.1549 76.0157 62.3999C75.6646 60.6448 75.8403 58.8252 76.5206 57.1697L64.2881 44.9372L64.2863 77.1319C65.1738 77.5689 65.9842 78.1477 66.6853 78.8457C70.2272 82.3866 70.2272 88.125 66.6853 91.6735C63.1425 95.2144 57.4003 95.2144 53.8613 91.6735C50.3194 88.126 50.3194 82.3875 53.8613 78.8457C54.7106 77.9967 55.7197 77.3244 56.8303 76.8675V44.3747C55.7185 43.9198 54.7089 43.2469 53.8613 42.3957C51.1781 39.7144 50.5322 35.7769 51.9084 32.4807L38.49 19.0622L3.06001 54.4903C1.63062 55.9202 0.827637 57.8592 0.827637 59.881C0.827637 61.9027 1.63062 63.8418 3.06001 65.2716L54.7322 116.941C57.7078 119.917 62.5322 119.917 65.5125 116.941L116.942 65.5116C118.371 64.0813 119.174 62.1422 119.173 60.1203C119.173 58.0984 118.37 56.1594 116.941 54.7294Z" fill="#F34F29"/>
</g>
<rect x="136" width="52" height="120" fill="#D9D9D9"/>
<defs>
<clipPath id="clip0_46_476">
<rect width="120" height="120" fill="white"/>
</clipPath>
</defs>
</svg>
