<svg width="120" height="120" viewBox="0 0 120 120" fill="none" xmlns="http://www.w3.org/2000/svg">
<path d="M12.5322 46.6164C8.5959 46.9001 0.578713 49.925 0.000399573 59.7555C-0.0361274 63.8014 2.41914 72.1476 12.5324 73.1634H39.5213C43.8554 73.1634 46.7474 76.1376 46.7474 80.4764V106.98C46.7474 113.731 52.2896 119.991 60.0005 119.991C63.374 120.151 70.6993 118.256 73.0125 109.389C73.334 106.9 74.1692 101.487 74.9402 99.7518C76.5465 91.9612 85.0125 75.754 106.025 73.2482C110.361 73.0053 119.229 70.7906 120 59.9964C120.038 55.6542 117.295 46.8965 106.027 46.6034H80.4728C76.1446 46.6034 73.2704 43.8514 73.2704 39.518V13.4956C73.2646 9.23867 70.6029 0.580192 60.0005 0.00193341C56.0646 -0.0783807 47.904 2.31497 46.7474 12.5309C46.5065 16.2248 44.6269 25.4441 39.0366 32.77C36.1461 37.1018 26.7987 45.9356 12.5322 46.6164Z" fill="url(#paint0_linear_5_112)"/>
<defs>
<linearGradient id="paint0_linear_5_112" x1="7.11877e-07" y1="60.2354" x2="127.228" y2="79.7552" gradientUnits="userSpaceOnUse">
<stop stop-color="#9050DA"/>
<stop offset="1" stop-color="#007AFF"/>
</linearGradient>
</defs>
</svg>
